{
  "asset": {
    "version": "2.0",
    "generator": "THREE.GLTFExporter r169"
  },
  "scenes": [
    {
      "name": "Scene",
      "nodes": [
        1
      ]
    }
  ],
  "scene": 0,
  "nodes": [
    {
      "name": "Mesh_0",
      "extras": {
        "name": "Mesh_0"
      },
      "mesh": 0
    },
    {
      "name": "Traditional_Vietnames_1024041455.glb",
      "children": [
        0
      ]
    }
  ],
  "bufferViews": [
    {
      "buffer": 0,
      "byteOffset": 0,
      "byteLength": 397992,
      "target": 34962,
      "byteStride": 12
    },
    {
      "buffer": 0,
      "byteOffset": 397992,
      "byteLength": 397992,
      "target": 34962,
      "byteStride": 12
    },
    {
      "buffer": 0,
      "byteOffset": 795984,
      "byteLength": 265328,
      "target": 34962,
      "byteStride": 8
    },
    {
      "buffer": 0,
      "byteOffset": 1061312,
      "byteLength": 320288,
      "target": 34963
    }
  ],
  "buffers": [
    {
      "byteLength": 1381600,
      "uri": "data:application/octet-stream;base64,"
    }
  ],
  "accessors": [
    {
      "bufferView": 0,
      "componentType": 5126,
      "count": 33166,
      "max": [
        0.7194949984550476,
        0.9923930168151855,
        0.2355310022830963
      ],
      "min": [
        -0.7130429744720459,
        -0.9955379962921143,
        -0.23408299684524536
      ],
      "type": "VEC3"
    },
    {
      "bufferView": 1,
      "componentType": 5126,
      "count": 33166,
      "max": [
        0.9999550580978394,
        0.9994504451751709,
        0.999996542930603
      ],
      "min": [
        -0.9999690055847168,
        -0.9993079900741577,
        -0.999998927116394
      ],
      "type": "VEC3"
    },
    {
      "bufferView": 2,
      "componentType": 5126,
      "count": 33166,
      "max": [
        0.99951171875,
        0.99951171875
      ],
      "min": [
        0.0006661415100097656,
        0.01088714599609375
      ],
      "type": "VEC2"
    },
    {
      "bufferView": 3,
      "componentType": 5123,
      "count": 160143,
      "max": [
        33165
      ],
      "min": [
        0
      ],
      "type": "SCALAR"
    }
  ],
  "materials": [
    {
      "pbrMetallicRoughness": {
        "metallicFactor": 0,
        "roughnessFactor": 0.800000011920929,
        "baseColorTexture": {
          "index": 0,
          "texCoord": 0
        }
      },
      "doubleSided": true,
      "name": "Material_0"
    }
  ],
  "textures": [
    {
      "sampler": 0,
      "source": 0,
      "name": "Image_0"
    }
  ],
  "samplers": [
    {
      "magFilter": 9729,
      "minFilter": 9987,
      "wrapS": 10497,
      "wrapT": 10497
    }
  ],
  "images": [
    {
      "mimeType": "image/jpeg",
      "uri": "data:image/jpeg;base64,"
    }
  ],
  "meshes": [
    {
      "primitives": [
        {
          "mode": 4,
          "attributes": {
            "POSITION": 0,
            "NORMAL": 1,
            "TEXCOORD_0": 2
          },
          "indices": 3,
          "material": 0
        }
      ]
    }
  ]
}